<?xml version="1.0" standalone="no"?>
<!DOCTYPE svg PUBLIC "-//W3C//DTD SVG 20010904//EN"
 "http://www.w3.org/TR/2001/REC-SVG-20010904/DTD/svg10.dtd">
<svg version="1.0" xmlns="http://www.w3.org/2000/svg"
 width="66.000000pt" height="77.000000pt" viewBox="0 0 66.000000 77.000000"
 preserveAspectRatio="xMidYMid meet">

<g transform="translate(0.000000,77.000000) scale(0.100000,-0.100000)"
fill="#000000" stroke="none">
<path d="M147 706 c-3 -8 -3 -17 0 -20 4 -3 60 -6 125 -6 108 0 119 2 116 18
-3 15 -18 17 -119 20 -94 2 -118 0 -122 -12z"/>
<path d="M472 660 c-12 -5 -25 -16 -28 -25 -4 -9 -18 -15 -38 -15 -26 1 -28 2
-13 11 36 21 2 29 -129 29 -112 0 -134 -2 -134 -15 0 -8 6 -15 14 -15 8 0 16
-6 18 -12 3 -8 32 -15 79 -18 52 -4 73 -9 71 -17 -1 -7 -3 -18 -5 -25 -1 -7 9
-15 23 -18 58 -16 68 -22 74 -52 10 -49 -38 -127 -116 -189 -59 -46 -70 -48
-63 -11 4 21 1 18 -13 -12 -20 -43 -33 -34 -28 18 2 14 -1 23 -5 20 -5 -3 -10
5 -10 18 -1 20 -2 21 -6 3 -3 -11 -10 -23 -17 -27 -8 -5 -8 -13 2 -28 16 -26
15 -30 -5 -24 -16 5 -15 3 1 -10 22 -18 21 -21 -11 -30 -23 -7 -23 -6 -25 86
-2 147 6 184 46 217 9 7 13 17 10 22 -3 5 12 9 33 10 34 1 35 2 13 9 -14 4
-18 9 -10 10 11 1 9 4 -5 10 -29 12 -35 12 -35 -3 0 -7 -13 -26 -29 -41 -47
-45 -53 -71 -49 -217 3 -123 5 -137 27 -168 68 -95 244 -94 313 1 22 31 23 42
23 180 0 136 -2 148 -22 177 -27 36 -28 41 -8 41 8 0 19 -8 24 -19 6 -10 24
-24 41 -31 95 -39 161 108 69 155 -32 17 -44 18 -77 5z m78 -40 c11 -11 20
-29 20 -40 0 -26 -34 -60 -60 -60 -11 0 -29 9 -40 20 -11 11 -20 29 -20 40 0
11 9 29 20 40 11 11 29 20 40 20 11 0 29 -9 40 -20z m-130 -40 c0 -13 -7 -20
-19 -20 -22 0 -35 15 -26 30 12 19 45 11 45 -10z m-41 -231 c-31 -60 -151
-144 -231 -163 -44 -10 -32 9 14 25 54 17 143 76 187 123 40 41 46 45 30 15z
m10 -41 c-38 -74 -129 -150 -194 -163 -26 -5 -27 -4 -7 4 12 6 22 13 22 16 0
4 -10 4 -22 0 -13 -3 4 9 37 27 33 18 85 58 115 88 30 31 56 55 58 54 2 -1 -2
-13 -9 -26z m21 -38 c0 -5 -2 -10 -4 -10 -3 0 -8 5 -11 10 -3 6 -1 10 4 10 6
0 11 -4 11 -10z m-2 -42 c-2 -15 -10 -23 -23 -23 -13 0 -21 8 -23 23 -3 18 1
22 23 22 22 0 26 -4 23 -22z m-33 -54 c0 -10 -8 -20 -18 -22 -22 -4 -35 27
-16 39 20 12 34 5 34 -17z m-68 -24 c-3 -10 0 -21 7 -23 6 -2 -4 -4 -21 -5
-18 0 -36 4 -39 10 -5 7 0 9 14 6 14 -4 22 0 25 13 3 11 8 19 12 19 4 0 5 -9
2 -20z"/>
<path d="M474 606 c-3 -8 -4 -25 -2 -38 2 -18 9 -23 32 -23 36 0 56 27 40 53
-14 22 -62 28 -70 8z m52 -11 c14 -13 14 -17 -1 -31 -15 -15 -18 -15 -32 -1
-13 13 -13 17 -2 31 17 19 17 19 35 1z"/>
<path d="M319 487 c-9 -7 -21 -23 -28 -36 -11 -19 -15 -21 -23 -10 -6 10 -8 2
-6 -24 5 -49 -15 -43 -23 7 -3 21 -13 45 -23 54 -15 15 -16 14 -16 -18 0 -19
9 -46 20 -60 29 -37 25 -58 -5 -26 -13 14 -27 26 -30 26 -13 0 -3 -21 24 -50
27 -30 29 -30 34 -11 3 12 13 24 24 27 50 16 73 27 73 35 0 13 -34 11 -48 -3
-6 -6 -15 -8 -19 -4 -10 10 26 36 49 36 20 0 68 42 68 60 0 14 -51 12 -71 -3z"/>
<path d="M256 328 c-9 -12 -13 -24 -11 -27 6 -5 45 29 45 41 0 15 -19 8 -34
-14z"/>
</g>
</svg>
